<?xml version="1.0" standalone="no"?>
<!DOCTYPE svg PUBLIC "-//W3C//DTD SVG 20010904//EN"
 "http://www.w3.org/TR/2001/REC-SVG-20010904/DTD/svg10.dtd">
<svg version="1.0" xmlns="http://www.w3.org/2000/svg"
 width="702.000000pt" height="702.000000pt" viewBox="0 0 702.000000 702.000000"
 preserveAspectRatio="xMidYMid meet">
<metadata>
Created by potrace 1.14, written by Peter Selinger 2001-2017
</metadata>
<g transform="translate(0.000000,702.000000) scale(0.100000,-0.100000)"
fill="#000000" stroke="none">
<path d="M3214 6571 c-43 -26 -49 -36 -58 -101 -7 -47 40 -103 95 -115 41 -9
100 17 122 55 34 57 13 136 -44 164 -42 21 -77 20 -115 -3z"/>
<path d="M4455 6324 c-29 -56 -68 -90 -137 -119 l-29 -12 68 -36 c59 -31 71
-43 93 -87 36 -76 42 -77 74 -17 38 70 49 81 101 103 24 10 46 23 49 30 3 8
-20 26 -56 46 -51 28 -65 42 -90 91 -17 31 -33 57 -37 57 -4 0 -20 -25 -36
-56z"/>
<path d="M2877 6172 c-20 -22 -22 -62 -4 -84 12 -16 32 -22 70 -19 21 1 48 57
39 80 -15 41 -77 54 -105 23z"/>
<path d="M5137 6112 c-30 -33 -20 -74 20 -84 50 -13 86 57 46 88 -25 19 -47
17 -66 -4z"/>
<path d="M3606 5969 c2 -34 6 -64 8 -66 2 -2 59 -6 126 -9 68 -3 126 -7 130
-9 3 -2 37 -7 75 -10 39 -4 77 -11 85 -15 8 -4 17 -8 20 -8 20 3 115 -18 202
-43 116 -33 128 -34 128 -16 0 7 9 32 20 55 11 22 20 43 20 45 0 4 -20 11 -60
22 -3 0 -30 9 -61 18 -30 9 -89 24 -130 33 -120 25 -160 33 -224 39 -27 3 -60
8 -72 11 -13 2 -79 7 -147 10 l-125 5 5 -62z"/>
<path d="M2656 5851 c-3 -5 -18 -12 -33 -16 -34 -8 -217 -98 -313 -154 -202
-118 -376 -255 -540 -424 -96 -99 -103 -107 -96 -114 3 -3 26 -20 52 -37 l46
-32 112 111 c109 108 145 139 236 210 25 19 50 39 55 43 87 70 328 205 480
269 33 14 61 26 63 28 2 2 -4 31 -14 64 -15 56 -34 76 -48 52z"/>
<path d="M5460 5773 c-56 -20 -83 -89 -56 -142 59 -114 231 -34 181 84 -20 48
-77 75 -125 58z"/>
<path d="M1142 5703 c-11 -10 -22 -25 -23 -33 -4 -24 12 -70 25 -71 6 0 20 -2
31 -4 32 -6 65 21 65 53 0 57 -58 89 -98 55z"/>
<path d="M4808 5656 c-27 -59 -26 -66 12 -86 32 -16 196 -126 235 -157 17 -13
35 -27 40 -31 104 -75 311 -281 405 -402 19 -25 38 -46 42 -48 5 -2 8 -10 8
-17 0 -7 4 -15 8 -17 15 -6 139 -196 130 -199 -2 0 -20 -2 -42 -4 -21 -2 -40
-6 -42 -7 -5 -6 18 -88 25 -88 3 1 26 5 50 9 48 10 71 6 71 -13 0 -6 7 -19 14
-29 13 -16 16 -16 70 5 46 17 56 25 53 40 -3 10 -4 18 -4 19 44 17 471 19 488
2 27 -27 -36 -113 -151 -208 -28 -22 -186 -125 -193 -125 -3 0 -10 13 -15 29
l-10 29 -62 -16 c-58 -16 -61 -18 -55 -42 19 -78 24 -71 -91 -125 -59 -27
-109 -50 -111 -50 -2 0 -18 43 -37 95 -32 91 -101 253 -118 276 -4 6 -22 37
-39 70 -96 180 -272 397 -463 569 -94 85 -274 209 -391 270 -50 26 -94 50
-100 54 -16 12 -164 70 -260 102 -99 34 -164 50 -295 75 -125 24 -177 27 -380
28 -177 0 -272 -5 -340 -19 -14 -3 -40 -8 -59 -11 -18 -3 -43 -8 -55 -10 -52
-12 -62 -14 -83 -18 -12 -3 -83 -25 -158 -50 -143 -48 -335 -136 -421 -192
-28 -19 -56 -34 -62 -34 -6 0 -12 -4 -14 -8 -1 -4 -35 -30 -74 -57 -166 -116
-340 -285 -482 -470 -122 -158 -291 -485 -328 -635 -2 -8 -13 -49 -24 -90 -56
-199 -74 -336 -75 -565 0 -168 7 -273 25 -365 6 -30 13 -68 16 -85 20 -116 99
-353 158 -477 l41 -87 -25 -5 c-14 -3 -45 -8 -70 -10 -140 -15 -165 -18 -171
-22 -4 -2 -9 2 -12 9 -104 252 -115 287 -92 287 18 0 19 13 3 57 -8 21 -19 33
-30 33 -10 0 -19 5 -19 10 -1 6 -2 13 -4 18 -10 37 -15 61 -19 84 -3 15 -7 31
-9 35 -3 5 -7 31 -11 58 -3 28 -8 59 -10 70 -12 60 -16 144 -8 149 6 3 23 -1
38 -9 78 -40 174 16 174 101 0 62 -58 124 -116 124 -35 0 -81 -23 -98 -49 -16
-25 -16 -24 -14 54 3 77 4 80 33 95 42 21 49 36 51 107 3 53 0 65 -18 77 -11
8 -27 12 -35 9 -15 -6 -15 16 2 110 14 80 18 73 -43 90 -32 9 -60 13 -64 9 -9
-9 -34 -141 -43 -226 -7 -66 -17 -78 -100 -121 -27 -14 -59 -31 -69 -38 -11
-6 -63 -39 -115 -72 -124 -77 -255 -167 -259 -177 -2 -4 -8 -8 -13 -8 -5 0
-17 -7 -26 -15 -10 -8 -52 -43 -93 -77 -72 -59 -196 -179 -233 -227 -74 -94
-128 -192 -131 -238 0 -13 -4 -23 -8 -23 -11 0 -2 -131 12 -177 20 -66 109
-152 203 -197 43 -21 86 -39 95 -41 9 -2 44 -12 77 -21 33 -9 69 -18 80 -19
11 -1 31 -5 45 -8 24 -6 64 -11 195 -23 120 -11 580 -4 602 9 5 3 24 -22 43
-56 18 -34 46 -81 62 -104 15 -23 28 -44 28 -47 0 -5 93 -137 118 -167 123
-151 291 -327 369 -386 l33 -25 27 33 c57 66 63 79 42 79 -14 0 -276 262 -315
315 -16 22 -34 45 -41 50 -14 13 -152 215 -186 276 l-27 45 23 1 c12 0 45 3
72 6 28 4 73 9 100 12 28 2 60 7 71 10 17 4 29 -7 59 -52 21 -31 42 -61 47
-67 38 -46 54 -67 85 -107 92 -122 322 -324 498 -438 178 -117 513 -257 685
-288 14 -2 41 -8 60 -13 19 -5 55 -11 80 -14 25 -3 54 -8 66 -10 73 -15 356
-22 444 -12 19 3 62 7 95 10 33 3 71 8 85 11 32 6 127 25 160 31 14 3 68 18
120 34 52 16 100 30 105 31 6 2 21 8 34 15 14 7 28 11 33 8 4 -3 8 0 8 5 0 6
7 11 15 11 8 0 23 4 33 9 9 5 64 33 122 61 88 44 283 161 300 180 3 3 21 17
40 30 19 13 40 29 46 35 7 5 38 33 69 60 294 257 514 586 636 955 18 52 33
102 34 110 1 8 5 22 8 30 7 20 27 108 32 145 2 17 6 46 9 65 15 88 17 114 23
265 3 88 8 163 12 166 3 4 44 26 91 50 47 24 87 46 90 49 3 3 17 11 32 17 l26
12 5 -52 c4 -56 0 -380 -7 -437 -8 -78 -18 -145 -22 -152 -5 -8 16 -15 66 -23
19 -3 42 -8 51 -11 9 -2 16 1 16 8 1 7 4 33 7 58 22 169 28 441 13 603 l-7 78
68 42 c72 44 304 200 328 220 9 7 23 19 33 27 9 8 48 40 86 71 73 59 202 186
219 216 5 10 20 29 33 43 13 14 33 44 44 67 11 24 24 45 29 48 4 2 11 19 15
37 4 18 10 40 13 48 2 8 5 49 5 90 1 105 -35 174 -133 254 -43 35 -165 86
-264 111 -55 13 -102 24 -105 23 -3 0 -8 1 -11 2 -3 1 -18 3 -35 5 -16 2 -57
7 -90 11 -33 5 -178 9 -322 9 -249 0 -263 -1 -276 -20 -16 -21 -12 -40 14 -70
10 -11 28 -33 41 -48 l23 -28 240 -3 c132 -2 260 -7 285 -10 82 -11 155 -24
182 -32 9 -3 27 -7 40 -9 37 -7 138 -49 138 -57 0 -5 6 -8 13 -8 20 0 73 -55
88 -91 9 -24 10 -43 2 -78 -13 -62 -17 -75 -23 -81 -3 -3 -22 -30 -42 -60 -21
-30 -68 -86 -106 -125 -71 -72 -81 -81 -167 -150 -28 -21 -52 -42 -55 -45 -3
-3 -12 -9 -22 -15 -9 -5 -54 -37 -100 -70 -45 -33 -87 -62 -93 -64 -5 -2 -35
-21 -66 -42 l-57 -38 -7 27 c-4 15 -9 38 -12 52 -6 32 -9 42 -15 60 -25 69
-28 95 -12 105 131 82 236 159 289 210 67 65 115 147 115 195 0 41 -34 86 -71
95 -19 4 -41 9 -49 11 -27 8 -292 8 -406 1 l-110 -6 -18 32 c-25 43 -128 201
-136 207 -3 3 -17 21 -30 40 -67 99 -252 298 -373 403 -67 58 -202 160 -277
209 -55 36 -158 98 -164 98 -1 0 -14 -24 -28 -54z m1140 -1567 c7 -24 19 -75
27 -113 12 -58 12 -70 0 -82 -7 -8 -16 -14 -20 -14 -3 0 -41 -20 -83 -44 -121
-69 -118 -69 -131 16 -6 40 -13 84 -16 98 -21 90 -27 80 87 136 57 29 107 51
113 50 5 -2 15 -22 23 -47z m-4907 -664 c0 -30 1 -68 1 -85 0 -16 -1 -35 -1
-41 -1 -5 -16 -17 -33 -25 -55 -24 -322 -186 -338 -204 -3 -3 -27 -23 -55 -45
-98 -78 -138 -136 -133 -197 3 -42 45 -82 105 -99 54 -16 355 -19 485 -5 l77
8 11 -43 c12 -43 51 -150 73 -199 23 -51 33 -49 -253 -51 -180 -2 -349 7 -425
24 -11 2 -38 7 -60 11 -100 17 -221 67 -272 112 -30 26 -68 106 -57 117 3 2 7
16 10 31 5 29 53 122 81 157 57 72 232 236 307 288 22 16 52 38 65 50 13 12
28 21 32 21 4 0 14 7 23 15 8 8 77 54 153 101 76 48 147 92 158 100 37 24 45
17 46 -41z m17 -242 c-2 -8 11 -112 18 -148 2 -11 7 -36 10 -55 4 -19 7 -39 8
-45 8 -36 18 -83 22 -97 4 -13 -6 -17 -58 -23 -288 -29 -488 -16 -488 32 0 38
157 161 349 275 108 63 144 79 139 61z"/>
<path d="M1476 5474 c-48 -47 15 -115 68 -73 22 17 24 23 15 47 -17 44 -54 56
-83 26z"/>
<path d="M1185 5136 c-52 -48 -30 -136 38 -154 94 -26 152 111 68 161 -40 24
-75 21 -106 -7z"/>
<path d="M1392 4767 c-10 -12 -131 -243 -132 -252 0 -3 -9 -24 -19 -47 -44
-105 -83 -218 -78 -231 3 -7 30 -20 61 -29 l55 -15 17 51 c9 28 22 65 29 81 7
17 23 55 35 85 28 67 104 223 131 267 l20 32 -43 29 c-63 42 -65 43 -76 29z"/>
<path d="M804 4373 c-37 -45 -2 -106 55 -97 51 9 71 58 40 98 -25 32 -68 32
-95 -1z"/>
<path d="M382 4121 c-27 -50 -42 -65 -92 -93 -33 -18 -60 -35 -60 -38 0 -3 26
-19 58 -36 47 -26 63 -42 92 -92 19 -34 38 -62 41 -62 4 0 9 8 13 18 20 56 65
109 119 137 31 16 57 32 57 36 0 4 -25 19 -56 35 -54 27 -75 50 -113 127 -8
15 -17 27 -20 27 -3 0 -21 -27 -39 -59z"/>
<path d="M6738 3178 c-8 -13 -24 -41 -36 -63 -15 -31 -34 -48 -77 -70 -31 -17
-59 -33 -61 -37 -2 -4 24 -23 59 -42 49 -27 68 -45 81 -74 9 -20 25 -47 34
-60 l18 -23 28 59 c25 53 36 63 97 99 l69 39 -64 33 c-56 30 -67 41 -98 98
-35 64 -35 64 -50 41z"/>
<path d="M6113 2594 c-79 -39 -46 -164 44 -164 86 1 124 91 64 151 -33 32 -61
36 -108 13z"/>
<path d="M5675 2210 c-78 -123 -99 -155 -105 -160 -3 -3 -17 -21 -30 -40 -13
-19 -30 -41 -37 -48 -7 -8 -26 -30 -41 -50 -15 -20 -66 -76 -114 -126 -51 -53
-84 -95 -80 -102 11 -19 71 -84 77 -84 16 0 205 206 276 301 23 30 45 56 50
57 5 2 9 7 9 11 0 4 29 51 65 105 l65 99 -52 38 c-28 22 -53 39 -55 39 -1 0
-14 -18 -28 -40z"/>
<path d="M6593 2023 c-47 -31 -18 -113 38 -113 28 0 62 34 62 63 0 51 -56 79
-100 50z"/>
<path d="M1068 1583 c-59 -38 -65 -108 -13 -160 32 -32 40 -35 77 -30 59 8 93
45 93 102 0 35 -6 50 -26 71 -33 33 -94 41 -131 17z"/>
<path d="M5046 1521 c-11 -17 -186 -131 -284 -184 -135 -73 -380 -177 -453
-192 -9 -2 -47 -12 -85 -24 -38 -11 -82 -22 -99 -25 -16 -3 -41 -8 -55 -11
-75 -15 -144 -26 -206 -33 -77 -8 -429 -9 -513 -1 -55 5 -57 4 -65 -41 -3 -14
-5 -25 -6 -25 -8 0 -3 -55 5 -56 5 0 19 -2 30 -5 60 -12 358 -18 465 -9 90 7
182 17 203 21 12 2 38 7 57 10 19 3 42 7 50 9 8 2 29 7 45 10 52 9 69 13 98
24 15 6 31 10 35 9 4 -1 48 11 97 27 50 16 95 30 100 31 83 20 401 181 534
270 56 38 113 76 127 84 32 20 30 27 -14 78 -36 41 -55 51 -66 33z"/>
<path d="M1803 1332 c-32 -20 -20 -88 17 -92 44 -6 57 6 66 58 5 26 -56 52
-83 34z"/>
<path d="M2440 1317 c0 -9 -3 -17 -7 -19 -5 -1 -18 -21 -30 -43 l-22 -41 109
-53 c59 -28 132 -61 162 -73 79 -30 285 -96 316 -101 15 -3 35 -8 45 -12 9 -4
18 -3 18 1 1 5 4 23 6 39 9 54 8 90 -2 90 -5 0 -28 6 -50 12 -22 7 -77 23
-122 37 -46 14 -97 31 -115 39 -18 8 -51 22 -73 30 -22 8 -80 35 -130 58 -49
24 -93 45 -97 47 -5 2 -8 -3 -8 -11z"/>
<path d="M2192 1023 c-24 -49 -38 -63 -85 -88 -30 -17 -58 -33 -62 -37 -4 -3
21 -21 54 -40 48 -26 66 -43 87 -83 47 -87 44 -88 99 20 8 17 23 35 34 40 10
6 39 21 65 34 l47 24 -28 16 c-15 9 -45 25 -66 36 -24 12 -45 34 -55 55 -9 19
-19 37 -22 40 -4 3 -9 13 -13 23 -11 29 -25 19 -55 -40z"/>
<path d="M4923 870 c-24 -10 -38 -47 -29 -77 15 -47 98 -54 112 -10 14 41 13
49 -11 73 -26 26 -37 28 -72 14z"/>
<path d="M4354 630 c-90 -34 -80 -177 12 -195 69 -12 124 33 124 102 0 65 -74
116 -136 93z"/>
</g>
</svg>
