<svg xmlns="http://www.w3.org/2000/svg" xmlns:xlink="http://www.w3.org/1999/xlink" viewBox="0 0 701.96 615.72"><defs><style>.a,.f{fill:#fff;}.b{fill:url(#a);}.c{fill:none;stroke-width:13px;}.c,.f{stroke:#1f2642;stroke-miterlimit:10;}.d,.e{fill:#1f2642;}.e{opacity:0.99;}.f{stroke-width:6px;}.g{fill:#f7931e;}.h{fill:#ff376a;}</style><linearGradient id="a" x1="173.77" y1="369.78" x2="551.44" y2="247.07" gradientUnits="userSpaceOnUse"><stop offset="0" stop-color="#ff156a"/><stop offset="1" stop-color="aqua"/></linearGradient></defs><circle class="a" cx="360.6" cy="309.42" r="209.5"/><circle class="b" cx="362.6" cy="308.42" r="198.5"/><circle class="c" cx="359.6" cy="309.42" r="211"/><rect class="d" x="438.98" y="338.71" width="92.95" height="28" rx="14" transform="translate(-369 76.83) rotate(-14.31)"/><rect class="d" x="475.72" y="226.8" width="114.57" height="28" rx="14" transform="translate(-339.87 85.11) rotate(-14.31)"/><path class="d" d="M486.05,252.31h51.59a14,14,0,0,1,14,14v0a14,14,0,0,1-14,14H458.69a0,0,0,0,1,0,0v-.64a27.36,27.36,0,0,1,27.36-27.36Z" transform="translate(-347.04 79.02) rotate(-14.31)"/><rect class="d" x="505.58" y="491.49" width="92.95" height="28" rx="14" transform="translate(-404.69 98.03) rotate(-14.31)"/><rect class="d" x="615.03" y="537.89" width="122.82" height="28" rx="14" transform="translate(-412.3 130.21) rotate(-14.31)"/><rect class="d" x="702.84" y="265.33" width="146.61" height="28" rx="14" transform="translate(-341.85 146.39) rotate(-14.31)"/><path class="d" d="M758.52,273.08h82a14,14,0,0,1,14,14v14a0,0,0,0,1,0,0h-82a14,14,0,0,1-14-14v-14A0,0,0,0,1,758.52,273.08Z" transform="translate(-342.82 154.14) rotate(-14.31)"/><path class="d" d="M689.75,188.69h75.1a14,14,0,0,1,14,14v14a0,0,0,0,1,0,0h-89.1a14,14,0,0,1-14-14v0a14,14,0,0,1,14-14Z" transform="translate(-324.43 131.94) rotate(-14.31)"/><rect class="d" x="441.12" y="354.77" width="152.23" height="28" rx="14" transform="translate(-371.99 85.18) rotate(-14.31)"/><path class="d" d="M490.65,463.33H660.52a14,14,0,0,1,14,14v0a14,14,0,0,1-14,14H504.65a14,14,0,0,1-14-14v-14a0,0,0,0,1,0,0Z" transform="translate(-396.79 104.7) rotate(-14.31)"/><path class="d" d="M717.73,423.73h142.9a3.42,3.42,0,0,1,3.42,3.42v14a17.42,17.42,0,0,1-17.42,17.42H717.73a17.42,17.42,0,0,1-17.42-17.42v0A17.42,17.42,0,0,1,717.73,423.73Z" transform="translate(-381.66 152.9) rotate(-14.31)"/><rect class="d" x="627.1" y="340.85" width="174.63" height="31.65" rx="14" transform="translate(-362.88 133.54) rotate(-14.31)"/><path class="d" d="M614.91,221H798.07a5.11,5.11,0,0,1,5.11,5.11v0A22.89,22.89,0,0,1,780.28,249H614.91a14,14,0,0,1-14-14v0a14,14,0,0,1,14-14Z" transform="translate(-333.21 126.71) rotate(-14.31)"/><rect class="d" x="442.87" y="385.55" width="74.86" height="28" rx="14" transform="translate(-380.74 77.01) rotate(-14.31)"/><rect class="d" x="546.85" y="522.43" width="55.69" height="28" rx="14" transform="translate(-411.64 104.58) rotate(-14.31)"/><rect class="d" x="446.22" y="307.31" width="55.69" height="28" rx="14" transform="translate(-361.6 73.04) rotate(-14.31)"/><rect class="d" x="778.22" y="474.31" width="55.69" height="28" rx="14" transform="translate(-392.57 160.27) rotate(-14.31)"/><rect class="d" x="816.22" y="372.31" width="55.69" height="28" rx="14" transform="translate(-366.19 166.5) rotate(-14.31)"/><rect class="d" x="646.22" y="155.31" width="55.69" height="28" rx="14" transform="translate(-317.83 117.75) rotate(-14.31)"/><rect class="d" x="574.12" y="299.42" width="65.73" height="28" rx="14" transform="translate(-355.53 105.65) rotate(-14.31)"/><path class="e" d="M997.51,234.51c-9.93-31.82-69.36-35.65-120.13-32.78a4.19,4.19,0,0,0-3,6.84l6.85,8.3a4.19,4.19,0,0,0,3.42,1.51q10.26-.45,19.29-.45c51.41,0,73.87,10.5,77.35,21.64,4.13,13.23-14.26,40.94-78.27,79C843.87,353.8,761.4,388.76,670.79,417s-178.32,46.44-247,51.13c-74.31,5.08-105.2-7.25-109.33-20.47s14.27-40.94,78.27-79q13.11-7.8,27.7-15.56a4.21,4.21,0,0,0,2.23-3.69v-9.76a4.19,4.19,0,0,0-6.14-3.7c-11.45,6-22.31,12.05-32.48,18.1-44.86,26.7-96.17,65.5-85.8,98.7,8.25,26.45,50.7,33.56,94,33.56,11.05,0,22.15-.47,32.75-1.19,70-4.78,159.05-23.2,250.89-51.86s175.6-64.2,235.86-100.06C956.57,306.51,1007.87,267.71,997.51,234.51Z" transform="translate(-296.9 -54.08)"/><circle class="f" cx="467.1" cy="335.92" r="18"/><path class="d" d="M425.32,428.65c-5.44.78-10.65,1.46-15.59,2-53.09,6.16-55.87-1.39-55.89-1.46s-1.56-7.29,36.31-29.32c8.93-5.19,20-11,27.43-14.81l-2.49-8.83c-7.78,4-19.69,10.18-29.42,15.84-39.35,22.88-42.31,33.17-40.49,39.57,1.53,5.39,6.89,10.42,30.19,10.42a314,314,0,0,0,35.4-2.47c5.57-.64,11.47-1.43,17.67-2.33Z" transform="translate(-296.9 -54.08)"/><path class="d" d="M940.14,243c-4.82-4.37-39.59-5.69-83.46,1.19l2.46,8.72c39.49-6.1,72.46-5.51,75-3.24.47.43.84.9.52,2.3-3.77,16.21-46.27,40.93-115.93,68.54l3.07,8.5c19.41-7.66,36.82-15.14,51.85-22.28C917.12,286.06,940,268.81,943.38,254A10.91,10.91,0,0,0,940.14,243Z" transform="translate(-296.9 -54.08)"/><circle class="f" cx="531.1" cy="267.92" r="9"/><circle class="f" cx="128.1" cy="322.92" r="9"/><path class="g" d="M419,416H405.7a254.15,254.15,0,0,0,70.11,131q8.61,8.63,17.89,16.29l8.35-10.12A243.12,243.12,0,0,1,419,416Z" transform="translate(-296.9 -54.08)"/><path class="g" d="M896.36,406.35l12.81,2.36A258,258,0,0,0,896.88,277l-12.62,3.72a243.11,243.11,0,0,1,12.1,125.59Z" transform="translate(-296.9 -54.08)"/><path class="g" d="M413.85,366a243.25,243.25,0,0,1,4.9-48.67l-12.6-3.46A259.37,259.37,0,0,0,405.7,416H419A242.7,242.7,0,0,1,413.85,366Z" transform="translate(-296.9 -54.08)"/><path class="g" d="M739.05,123.56A256.29,256.29,0,0,0,657,110.11l1,13a241.84,241.84,0,0,1,75.64,12.45Z" transform="translate(-296.9 -54.08)"/><path class="g" d="M804,559.16a242.63,242.63,0,0,1-177.67,47.91l-2.18,12.85A260,260,0,0,0,656.79,622a253.94,253.94,0,0,0,155.77-52.84Z" transform="translate(-296.9 -54.08)"/><path class="g" d="M437.05,234.61a253.44,253.44,0,0,0-24.82,55.58l12.63,3.47a241.82,241.82,0,0,1,22.95-51.36Z" transform="translate(-296.9 -54.08)"/><path class="g" d="M867,487.63a244.73,244.73,0,0,1-44.35,55.71l8.55,10c2.2-2.06,4.39-4.14,6.53-6.29a257.35,257.35,0,0,0,40-51.68Z" transform="translate(-296.9 -54.08)"/><path class="g" d="M565.45,126.85a255.18,255.18,0,0,0-89.64,58.22q-6.36,6.36-12.21,13.09l10.73,7.67a244,244,0,0,1,94.85-66.37Z" transform="translate(-296.9 -54.08)"/><path class="g" d="M541.62,579.88,535,591.29a252.38,252.38,0,0,0,65,24.4l2.19-12.9A241.18,241.18,0,0,1,541.62,579.88Z" transform="translate(-296.9 -54.08)"/><path class="g" d="M877,257.39l9.58-4.36A258.29,258.29,0,0,0,780.31,141.77l-5.44,12A244.64,244.64,0,0,1,874.4,258.14Z" transform="translate(-296.9 -54.08)"/><circle class="d" cx="112.36" cy="509.22" r="10.5"/><circle class="h" cx="615.83" cy="407.03" r="9.17"/><circle class="d" cx="85.06" cy="225.25" r="6.37"/><circle class="d" cx="549.36" cy="91.34" r="10.26"/><circle class="d" cx="495.26" cy="577.24" r="6.37"/><ellipse class="h" cx="151.1" cy="115.24" rx="5.21" ry="5.29"/><circle class="d" cx="292.05" cy="46.14" r="6.37"/><circle class="d" cx="662.97" cy="461.43" r="6.37"/><circle class="d" cx="117.97" cy="93.43" r="6.37"/><ellipse class="h" cx="183.4" cy="529.92" rx="5.17" ry="5.39"/><ellipse class="h" cx="438.93" cy="605.39" rx="10.17" ry="10.33"/><ellipse class="h" cx="516.97" cy="51.43" rx="5.21" ry="5.29"/><polygon class="d" points="41.96 239.98 48.98 252.81 61.82 259.84 48.98 266.86 41.96 279.7 34.94 266.86 22.1 259.84 34.94 252.81 41.96 239.98"/><polygon class="d" points="675.07 338.48 682.09 351.31 694.92 358.33 682.09 365.36 675.07 378.19 668.04 365.36 655.21 358.33 668.04 351.31 675.07 338.48"/><polygon class="d" points="223.06 549.48 230.09 562.31 242.92 569.34 230.09 576.36 223.06 589.19 216.04 576.36 203.21 569.34 216.04 562.31 223.06 549.48"/><polygon class="d" points="449.1 19.92 456.13 32.76 468.96 39.78 456.13 46.8 449.1 59.64 442.08 46.8 429.24 39.78 442.08 32.76 449.1 19.92"/><circle class="d" cx="327.24" cy="11.89" r="11.89"/><ellipse class="h" cx="124.33" cy="152.05" rx="8.99" ry="9.13"/></svg>